<svg width="284.929" height="284.929" xmlns="http://www.w3.org/2000/svg">

 <g>
  <title>background</title>
  <rect fill="none" id="canvas_background" height="402" width="582" y="-1" x="-1"/>
 </g>
 <g>
  <title>Layer 1</title>
  <g stroke="null" id="svg_1">
   <path stroke="null" id="svg_2" fill="#606c71" d="m191.001254,91.98026l-9.665104,-9.664427c-1.287868,-1.290576 -2.771422,-1.933833 -4.448629,-1.933833c-1.673145,0 -3.156021,0.643257 -4.443889,1.933833l-75.978119,75.974056l-75.974733,-75.972025c-1.288545,-1.290576 -2.771422,-1.933833 -4.446598,-1.933833c-1.675853,0 -3.15873,0.643257 -4.446598,1.933833l-9.66375,9.665104c-1.290576,1.287868 -1.933833,2.770744 -1.933833,4.446598c0,1.674499 0.645288,3.157376 1.933833,4.445244l90.085081,90.087112c1.287868,1.288545 2.771422,1.932479 4.446598,1.932479s3.156021,-0.643934 4.443212,-1.932479l90.092529,-90.087112c1.287868,-1.288545 1.927739,-2.771422 1.927739,-4.445244c0,-1.675853 -0.639871,-3.15873 -1.927739,-4.449306z"/>
  </g>
  <g id="svg_3"/>
  <g id="svg_4"/>
  <g id="svg_5"/>
  <g id="svg_6"/>
  <g id="svg_7"/>
  <g id="svg_8"/>
  <g id="svg_9"/>
  <g id="svg_10"/>
  <g id="svg_11"/>
  <g id="svg_12"/>
  <g id="svg_13"/>
  <g id="svg_14"/>
  <g id="svg_15"/>
  <g id="svg_16"/>
  <g id="svg_17"/>
 </g>
</svg>