<svg width="56" height="56" xmlns="http://www.w3.org/2000/svg">
 <!-- Generator: Sketch 39.1 (31720) - http://www.bohemiancoding.com/sketch -->
 <title>calendar-icon</title>
 <desc>Created with Sketch.</desc>

 <g>
  <title>background</title>
  <rect fill="none" id="canvas_background" height="58" width="58" y="-1" x="-1"/>
 </g>
 <g>
  <title>Layer 1</title>
  <g fill-rule="evenodd" fill="none" id="Page-1">
   <g stroke="null" fill="#818D8F" id="Contact-Us---Free-Consultation">
    <g stroke="null" id="Section-3">
     <g stroke="null" id="form">
      <g stroke="null" id="appointment">
       <g stroke="null" id="calendar-icon">
        <path stroke="null" id="Fill-1" d="m31.372991,39.154861c0,1.784769 -1.464087,3.346466 -3.137313,3.346466l-23.006849,0c-1.673225,0 -3.137313,-1.561697 -3.137313,-3.346466l0,-14.501266l29.281475,0l0,14.501266zm-29.281475,-20.078659c0,-1.784769 1.464087,-3.346466 3.137313,-3.346466l4.183018,0l0,1.115539c0,0.669229 0.418276,1.115524 1.045812,1.115524c0.627429,0 1.045827,-0.446158 1.045827,-1.115524l0,-1.115539l10.457659,0l0,1.115539c0,0.669229 0.418276,1.115524 1.045812,1.115524c0.627536,0 1.045827,-0.446158 1.045827,-1.115524l0,-1.115539l4.183018,0c1.673225,0 3.137313,1.561697 3.137313,3.346466l0,3.346466l-29.281596,0l0,-3.346466l0,0zm26.144162,-5.577393l-4.183018,0l0,-1.115539c0,-0.669229 -0.418276,-1.115524 -1.045812,-1.115524c-0.627551,0 -1.045827,0.446158 -1.045827,1.115524l0,1.115539l-10.457537,0l0,-1.115539c0,-0.669229 -0.418276,-1.115524 -1.045827,-1.115524c-0.627414,0 -1.045812,0.446158 -1.045812,1.115524l0,1.115539l-4.183018,0c-2.928175,0 -5.228829,2.454013 -5.228829,5.577393l0,20.078659c0,3.123379 2.300654,5.577393 5.228829,5.577393l23.006849,0c2.928175,0 5.228829,-2.454013 5.228829,-5.577393l0,-20.078659c0,-3.123379 -2.300654,-5.577393 -5.228829,-5.577393l0,0z"/>
        <path stroke="null" id="Fill-3" d="m7.668955,38.912335c0.627414,0 1.045827,-0.218234 1.464103,-0.654703c0.418276,-0.436468 0.627429,-1.091293 0.627429,-1.527761c0,-0.436468 -0.209153,-1.091293 -0.627429,-1.527761c-0.836567,-0.872937 -2.091532,-0.872937 -2.92822,0c-0.418276,0.436468 -0.627414,0.872937 -0.627414,1.527761c0,0.436468 0.209138,1.091293 0.627414,1.527761c0.418291,0.436468 0.836689,0.654703 1.464118,0.654703"/>
        <path stroke="null" id="Fill-5" d="m7.668955,31.63744c0.627414,0 1.045827,-0.218234 1.464103,-0.654703c0.418276,-0.436468 0.627429,-1.091293 0.627429,-1.527761c0,-0.436468 -0.209153,-1.091293 -0.627429,-1.527761c-0.836567,-0.872937 -2.091532,-0.872937 -2.92822,0c-0.418276,0.436468 -0.627414,0.872937 -0.627414,1.527761c0,0.654824 0.209138,1.091293 0.627414,1.527761c0.418291,0.436468 0.836689,0.654703 1.464118,0.654703"/>
        <path stroke="null" id="Fill-7" d="m13.246363,38.912335c0.627429,0 1.045827,-0.218234 1.464118,-0.654703c0.418276,-0.436468 0.627414,-1.091293 0.627414,-1.527761c0,-0.436468 -0.209138,-1.091293 -0.627414,-1.527761c-0.836567,-0.872937 -2.091532,-0.872937 -2.92822,0c-0.418276,0.436468 -0.627429,1.091293 -0.627429,1.527761c0,0.436468 0.209153,1.091293 0.627429,1.527761c0.418276,0.436468 0.836689,0.654703 1.464103,0.654703"/>
        <path stroke="null" id="Fill-9" d="m13.246363,31.63744c0.627429,0 1.045827,-0.218234 1.464118,-0.654703c0.418276,-0.436468 0.627414,-1.091293 0.627414,-1.527761c0,-0.436468 -0.209138,-1.091293 -0.627414,-1.527761c-0.836567,-0.872937 -2.091532,-0.872937 -2.92822,0c-0.418276,0.436468 -0.627429,1.091293 -0.627429,1.527761c0,0.436468 0.209153,1.091293 0.627429,1.527761c0.418276,0.436468 0.836689,0.654703 1.464103,0.654703"/>
        <path stroke="null" id="Fill-11" d="m20.218145,38.912335c0.627414,0 1.045827,-0.218234 1.464103,-0.654703c0.418276,-0.436468 0.627429,-0.872937 0.627429,-1.527761c0,-0.654824 -0.209153,-1.091293 -0.627429,-1.527761c-0.836567,-0.872937 -2.091532,-0.872937 -2.92822,0c-0.418276,0.436468 -0.627414,1.091293 -0.627414,1.527761c0,0.436468 0.209138,1.091293 0.627414,1.527761c0.418291,0.436468 0.836689,0.654703 1.464118,0.654703"/>
        <path stroke="null" id="Fill-13" d="m20.218145,31.63744c0.627414,0 1.045827,-0.218234 1.464103,-0.654703c0.418276,-0.436468 0.627429,-0.872937 0.627429,-1.527761c0,-0.436468 -0.209153,-1.091293 -0.627429,-1.527761c-0.836567,-0.872937 -2.091532,-0.872937 -2.92822,0c-0.418276,0.436468 -0.627414,1.091293 -0.627414,1.527761c0,0.436468 0.209138,1.091293 0.627414,1.527761c0.418291,0.436468 0.836689,0.654703 1.464118,0.654703"/>
        <path stroke="null" id="Fill-15" d="m25.795553,38.912335c0.627429,0 1.045827,-0.218234 1.464118,-0.654703c0.418276,-0.436468 0.627414,-1.091293 0.627414,-1.527761c0,-0.436468 -0.209138,-1.091293 -0.627414,-1.527761c-0.836567,-0.872937 -2.091532,-0.872937 -2.92822,0c-0.418276,0.436468 -0.627429,0.872937 -0.627429,1.527761c0,0.436468 0.209153,1.091293 0.627429,1.527761c0.418276,0.436468 0.836689,0.654703 1.464103,0.654703"/>
        <path stroke="null" id="Fill-17" d="m25.795553,31.63744c0.627429,0 1.045827,-0.218234 1.464118,-0.654703c0.418276,-0.436468 0.627414,-0.872937 0.627414,-1.527761c0,-0.436468 -0.209138,-1.091293 -0.627414,-1.527761c-0.836567,-0.872937 -2.091532,-0.872937 -2.92822,0c-0.418276,0.436468 -0.627429,1.091293 -0.627429,1.527761c0,0.436468 0.209153,1.091293 0.627429,1.527761c0.418276,0.436468 0.836689,0.654703 1.464103,0.654703"/>
       </g>
      </g>
     </g>
    </g>
   </g>
  </g>
 </g>
</svg>