<?xml version="1.0" encoding="utf-8"?>
<!-- Generator: Adobe Illustrator 16.0.0, SVG Export Plug-In . SVG Version: 6.00 Build 0)  -->
<!DOCTYPE svg PUBLIC "-//W3C//DTD SVG 1.1//EN" "http://www.w3.org/Graphics/SVG/1.1/DTD/svg11.dtd">
<svg version="1.1" id="Layer_1" xmlns="http://www.w3.org/2000/svg" xmlns:xlink="http://www.w3.org/1999/xlink" x="0px" y="0px"
	 width="3060px" height="582.048px" viewBox="0 104.976 3060 582.048" enable-background="new 0 104.976 3060 582.048"
	 xml:space="preserve">
<polygon fill="#FAC917" points="305.999,104.976 400.547,296.574 612,327.297 458.999,476.435 495.107,687.024 305.999,587.599
	116.88,687.024 153,476.435 0,327.297 211.44,296.574 "/>
<polygon fill="#d3d3d3" points="917.999,104.976 1012.547,296.574 1224,327.297 1070.999,476.436 1107.107,687.024 917.999,587.6
	728.88,687.024 765,476.436 612,327.297 823.44,296.574 "/>
<polygon fill="#d3d3d3" points="1529.999,104.976 1624.547,296.574 1836,327.297 1682.999,476.435 1719.107,687.024
	1529.999,587.599 1340.88,687.024 1377,476.435 1224,327.297 1435.44,296.574 "/>
<polygon fill="#d3d3d3" points="2141.999,104.976 2236.547,296.574 2448,327.297 2294.999,476.436 2331.107,687.024 2141.999,587.6
	1952.88,687.024 1989,476.436 1836,327.297 2047.44,296.574 "/>
<polygon fill="#d3d3d3" points="2753.999,104.976 2848.547,296.574 3060,327.297 2906.999,476.436 2943.107,687.024 2753.999,587.6
	2564.88,687.024 2601,476.436 2448,327.297 2659.44,296.574 "/>
</svg>
